<svg width="663" height="217" viewBox="0 0 663 217" xmlns="http://www.w3.org/2000/svg">
  <g fill="none" fill-rule="evenodd">
    <path d="M24.92 120.04v14.16c0 4.68-1.8 6.96-5.4 6.96-3.96.12-5.88-2.28-6-6.96v-10.56H.56v20.76l9.6 9.6h17.88l10.08-10.08v-32.16l-24.6-16.08V82.24c-.12-4.68 1.8-6.96 6-6.84 3.84.12 5.76 2.4 5.64 6.84V91h12.6V72.88L27.68 62.8H9.56L.2 72.16v32.52l24.72 15.36zM61.28 154H48.32V62.8h26.04l11.4 11.4v30.48l-11.4 11.4H61.28V154zm0-78.96v28.56h6.36c3.24.12 4.8-1.44 4.68-4.56V79.36c.12-2.88-1.44-4.32-4.68-4.32h-6.36zM102.8 154H89.36l9.72-91.2h17.52l10.92 91.2h-12.96l-1.08-12.12h-9.6L102.8 154zm5.28-57.12l-3.36 32.52h7.32l-3.96-32.52zM148.52 154h-13.2V62.8H161l11.28 11.28v30.36l-6 6 6.24 43.56h-12.96l-5.88-38.28h-5.16V154zm0-79.08v28.2h6.36c3 .12 4.56-1.32 4.68-4.32V79.12c-.12-2.88-1.68-4.32-4.68-4.2h-6.36zm31.8 79.08h13.2v-38.04l9.6 38.04h13.56l-10.32-44.04 9.96-47.16h-13.2l-9.6 41.4V62.8h-13.2V154zM507.92 120.04v14.16c0 4.68-1.8 6.96-5.4 6.96-3.96.12-5.88-2.28-6-6.96v-10.56h-12.96v20.76l9.6 9.6h17.88l10.08-10.08v-32.16l-24.6-16.08V82.24c-.12-4.68 1.8-6.96 6-6.84 3.84.12 5.76 2.4 5.64 6.84V91h12.6V72.88L510.68 62.8h-18.12l-9.36 9.36v32.52l24.72 15.36zm23.4 33.96h13.2v-39.12h9.6V154h13.2V62.8h-13.2v39.6h-9.6V62.8h-13.2V154zm46.2-11.16v-69l11.04-11.04h15l11.76 11.76v67.32L603.2 154h-14.52l-11.16-11.16zm12.84-61.8v54.12c-.12 3.96 2.04 6.12 6.24 6.24 4.32-.24 6.48-2.28 6.36-6.24V81.04c-.36-3.72-2.52-5.76-6.36-6.12-4.2.36-6.24 2.4-6.24 6.12zM638.48 154h-12.96V62.8h26.04l11.4 11.4v30.48l-11.4 11.4h-13.08V154zm0-78.96v28.56h6.36c3.24.12 4.8-1.44 4.68-4.56V79.36c.12-2.88-1.44-4.32-4.68-4.32h-6.36z" fill="#111"/>
    <path d="M410.842 158.007c0 8.188-6.636 14.825-14.83 14.825v-.008h-48.82l43.948-29.64h4.87c8.196 0 14.832 6.636 14.832 14.823zm-115.634 14.817v-29.64h26.972l-17.46 29.64h-9.512zm0-123.593h50.02l-50.02 33.736V49.23zm100.653.008c.05 0 .115-.007.15-.007 8.196 0 14.832 6.637 14.832 14.825 0 8.188-6.636 14.825-14.83 14.825-.037 0-.1-.008-.15-.008l-21.14.008 17.472-29.642h3.667zm47.18 55.474H285.568l98.366-66.354-29.948 50.832c-.113.22-.192.477-.192.754 0 .877.705 1.574 1.58 1.574v.008h11.9v-.008h28.253c.17 0 .327.008.484.008 15.182 0 27.478-12.298 27.478-27.47 0-13.985-10.453-25.53-23.96-27.246L419.6 2.714c.186-.257.278-.562.278-.89 0-.866-.705-1.574-1.574-1.574-.334 0-.648.104-.897.285V.532l-18.555 12.51-.007.02-34.897 23.533h-79.812c-.84 0-1.53.667-1.566 1.503V91.49l-34.014 22.94c-.477.28-.79.784-.79 1.368 0 .87.705 1.574 1.58 1.574h17.447l.036-.02h140.026l-90.904 61.31 26.865-45.61c.17-.307.306-.585.306-.934 0-.854-.676-1.552-1.523-1.574h-57.453v.007c-.87 0-1.574.7-1.574 1.568v51.78c0 .853.69 1.544 1.545 1.565h13.16l-16.976 28.83c-.172.25-.273.548-.273.876 0 .868.713 1.58 1.582 1.58.34 0 .654-.113.917-.3l45.912-30.973h67.57c15.182 0 27.478-12.29 27.478-27.47 0-11.378-6.92-21.146-16.79-25.312l37.07-25c.512-.27.853-.79.853-1.41 0-.868-.704-1.573-1.58-1.573z" fill="#5CC1DD"/>
  </g>
</svg>
